<?xml version="1.0" encoding="utf-8"?>
<!-- Svg Vector Icons : http://www.onlinewebfonts.com/icon -->
<!DOCTYPE svg PUBLIC "-//W3C//DTD SVG 1.1//EN" "http://www.w3.org/Graphics/SVG/1.1/DTD/svg11.dtd">
<svg version="1.1" xmlns="http://www.w3.org/2000/svg" xmlns:xlink="http://www.w3.org/1999/xlink" x="0px" y="0px" viewBox="0 0 1000 1000" enable-background="new 0 0 1000 1000" xml:space="preserve">
<metadata> Svg Vector Icons : http://www.onlinewebfonts.com/icon </metadata>
<g><g transform="translate(0.000000,511.000000) scale(0.100000,-0.100000)"><path d="M4631.9,4999.3c-31.1-3.9-142.1-17.5-243.3-29.2c-1015.9-114.8-2020-597.5-2790.7-1340.9C782.6,2841.1,280.5,1848.6,124.8,710.2c-33.1-241.3-33.1-965.2,0-1206.6C280.5-1634.9,784.5-2631.3,1598-3415.5c762.9-735.6,1652.2-1169.6,2732.3-1337c313.3-46.7,1012-46.7,1323.3,0c895.2,140.1,1586.1,430.1,2315.8,975c237.4,177.1,729.8,669.4,906.9,906.9c638.3,854.3,967.2,1753.4,1012,2765.4l11.7,260.8L7496.6,2557C5935.8,4115.8,5075.7,4962.3,5046.5,4966.2c-25.3,3.9-46.7,15.6-50.6,25.3C4990,5009.1,4762.3,5013,4631.9,4999.3z M4875.2,2389.6c0-2175.7,1.9-2370.3,33.1-2403.4c29.2-33.1,130.4-35,2384-35h2350.9v-105.1c0-303.6-109-860.2-245.2-1263c-457.3-1346.7-1529.6-2419-2882.2-2882.2c-507.9-173.2-953.6-245.2-1523.8-245.2c-570.2,0-1015.9,72-1523.8,245.2c-811.5,278.3-1564.7,801.8-2094,1453.7c-613,755.1-984.7,1726.2-1031.4,2685.6c-64.2,1377.8,406.7,2621.4,1350.6,3565.2c694.8,694.8,1607.5,1159.9,2559.1,1301.9c290,42.8,303.6,44.8,472.9,48.7l149.9,1.9V2389.6z M7302,2379.9c1191-1191,2166-2171.8,2166-2181.6c0-7.8-978.9-11.7-2173.8-9.7l-2175.7,5.8l-5.8,2175.7c-2,1194.9,1.9,2173.8,9.7,2173.8C5132.1,4543.9,6112.9,3569,7302,2379.9z"/><path d="M4943.3-1088c-303.6-74-525.4-290-603.3-585.8c-35-134.3-38.9-410.6-7.8-558.5c93.4-445.6,467.1-685,965.3-618.8c163.5,21.4,375.6,85.6,375.6,114.8c0,23.3-62.3,204.3-75.9,219.9c-7.8,7.8-60.3-3.9-118.7-25.3c-147.9-56.4-422.3-58.4-544.9-3.9c-198.5,87.6-299.7,282.2-299.7,579.9c-1.9,291.9,95.4,478.7,295.8,576c124.6,62.3,352.2,62.3,517.7,1.9c64.2-23.4,118.7-40.9,120.7-37c9.7,7.8,85.6,210.2,85.6,225.8c0,27.2-144,83.7-288,110.9C5194.4-1054.9,5075.7-1054.9,4943.3-1088z"/></g></g>
</svg>